<?xml version="1.0" encoding="UTF-8" standalone="no"?>
<svg
   width="120"
   height="40"
   viewBox="0 0 120 40"
   fill="none"
   version="1.1"
   id="svg4"
   sodipodi:docname="DBML2024-black.svg"
   inkscape:version="1.2.1 (9c6d41e, 2022-07-14)"
   xmlns:inkscape="http://www.inkscape.org/namespaces/inkscape"
   xmlns:sodipodi="http://sodipodi.sourceforge.net/DTD/sodipodi-0.dtd"
   xmlns="http://www.w3.org/2000/svg"
   xmlns:svg="http://www.w3.org/2000/svg">
  <defs
     id="defs8" />
  <sodipodi:namedview
     id="namedview6"
     pagecolor="#ffffff"
     bordercolor="#000000"
     borderopacity="0.25"
     inkscape:showpageshadow="2"
     inkscape:pageopacity="0.0"
     inkscape:pagecheckerboard="0"
     inkscape:deskcolor="#d1d1d1"
     showgrid="false"
     inkscape:zoom="10.916667"
     inkscape:cx="94.671756"
     inkscape:cy="27.618321"
     inkscape:window-width="1848"
     inkscape:window-height="1016"
     inkscape:window-x="72"
     inkscape:window-y="1107"
     inkscape:window-maximized="1"
     inkscape:current-layer="svg4" />
  <path
     fill-rule="evenodd"
     clip-rule="evenodd"
     d="m 15.3723,0 h 1.0527 5.9421 1.009 l 0.382,0.933846 1.4804,3.618744 c 1.238,0.49955 2.1217,0.99041 3.2212,1.82497 l 3.6871,-0.96186 1.0359,-0.27025 0.5939,0.89082 3.4502,5.17533 0.5899,0.8848 -0.638,0.8506 -2.444,3.2586 c 0.2952,1.2945 0.3279,2.3242 0.1614,3.6795 l 2.4533,2.1466 0.7766,0.6795 -0.3552,0.9689 -2.1085,5.7504 -0.3614,0.9855 h -1.0497 -4.4086 v -3.0058 h 3.359 l 1.3918,-3.796 -2.2902,-2.004 -0.6262,-0.5479 0.132,-0.8215 c 0.2755,-1.7148 0.2485,-2.5056 -0.1558,-3.9592 L 31.455,15.5689 31.8989,14.9771 34.1361,11.9942 31.8695,8.5944 28.4968,9.47423 27.7618,9.66599 27.1715,9.18778 C 25.8409,8.10987 25.0968,7.7009 23.5651,7.12727 L 22.9499,6.89688 22.7012,6.28889 21.3581,3.00578 h -3.8804 l -1.1737,3.22767 -0.2467,0.6784 -0.6837,0.2315 c -1.5732,0.53267 -2.3489,0.93078 -3.765,2.0541 L 11.021,9.66355 10.2953,9.47423 6.92258,8.5944 4.65076,12.0021 6.70917,14.7957 7.0853,15.3061 6.98212,15.9318 c -0.28623,1.7355 -0.34532,2.6495 -0.1784,4.4051 l 0.07558,0.7949 -0.61632,0.5075 -2.43617,2.0063 1.38037,3.7646 H 8.56614 V 30.416 H 4.1575 3.10783 L 2.74647,29.4305 0.637996,23.6801 0.27124,22.6798 1.09363,22.0026 3.74625,19.8181 C 3.65608,18.4365 3.71748,17.4197 3.91716,16.0736 L 1.60583,12.9368 0.980726,12.0884 1.56526,11.2116 5.0155,6.03627 5.60938,5.14545 6.64534,5.4157 10.3416,6.37994 c 1.1746,-0.87371 2.1027,-1.36603 3.38,-1.84033 l 1.291,-3.550322 z m 1.3415,21.7815 c -1.509,-1.5091 -1.509,-3.9557 0,-5.4648 1.509,-1.509 3.9557,-1.509 5.4647,0 1.5091,1.5091 1.5091,3.9557 0,5.4648 -1.509,1.509 -3.9557,1.509 -5.4647,0 z m -2.1254,-7.5902 c -2.6829,2.6829 -2.6829,7.0327 0,9.7156 2.6829,2.6828 7.0327,2.6828 9.7155,0 2.6829,-2.6829 2.6829,-7.0327 0,-9.7156 -2.6828,-2.6829 -7.0326,-2.6829 -9.7155,0 z M 10.483,30.416 H 28.5009 V 27.4102 H 10.483 Z m 0,4.792 H 28.5009 V 32.2022 H 10.483 Z M 28.5009,40 H 10.483 V 36.9942 H 28.5009 Z M 55.5494,16.9171 c 5.0097,0 8.0444,-3.0989 8.0444,-8.23699 0,-5.12203 -3.0347,-8.20488 -7.9962,-8.20488 H 49.7209 V 16.9171 Z M 53.1972,13.9386 V 3.45371 h 2.2158 c 3.0828,0 4.7126,1.57354 4.7126,5.2264 0,3.66889 -1.6298,5.25849 -4.7207,5.25849 z m 15.2324,2.9785 h 7.0247 c 3.693,0 5.6599,-1.9268 5.6599,-4.544 0,-2.43255 -1.7421,-3.90172 -3.6127,-3.99003 V 8.2225 c 1.71,-0.38536 2.9705,-1.59762 2.9705,-3.53243 0,-2.46468 -1.8305,-4.21484 -5.4592,-4.21484 h -6.5832 z m 3.4762,-2.842 V 9.70773 h 2.9143 c 1.6699,0 2.7055,0.96337 2.7055,2.32017 0,1.2363 -0.843,2.0472 -2.7858,2.0472 z m 0,-6.71965 V 3.28512 h 2.6413 c 1.5414,0 2.4165,0.7948 2.4165,1.98298 0,1.30058 -1.0597,2.08735 -2.4807,2.08735 z M 85.637,16.9171 V 0.47523 h 4.287 l 4.528,11.04687 h 0.1927 L 99.1726,0.47523 H 103.46 V 16.9171 h -3.372 V 6.21544 H 99.9513 L 95.6964,16.8368 H 93.4003 L 89.1453,6.17529 H 89.0088 V 16.9171 Z m 22.948,0 H 119.11 V 14.051 h -7.049 V 0.47523 h -3.476 z"
     fill="#000000"
     id="path2"
     sodipodi:nodetypes="ccccccccccccccccccccccccccccccccccccccccccccccccccccsccccccccccccccccccccccccccsscscscscccccccccccccccsssccsccsssccssccssccccssscccsssccccccccccccccccccccccccc" />
  <text
     xml:space="preserve"
     style="font-style:normal;font-variant:normal;font-weight:normal;font-stretch:normal;font-size:26.7417px;font-family:Garuda;-inkscape-font-specification:'Garuda, Normal';font-variant-ligatures:normal;font-variant-caps:normal;font-variant-numeric:normal;font-variant-east-asian:normal;letter-spacing:3.41197px;fill:#000000;fill-opacity:1;stroke-width:1.29556"
     x="46.475452"
     y="41.261261"
     id="text946"
     transform="scale(1.0434615,0.95834872)"><tspan
       sodipodi:role="line"
       id="tspan944"
       x="46.475452"
       y="41.261261"
       style="font-style:normal;font-variant:normal;font-weight:normal;font-stretch:normal;font-size:26.7417px;font-family:Garuda;-inkscape-font-specification:'Garuda, Normal';font-variant-ligatures:normal;font-variant-caps:normal;font-variant-numeric:normal;font-variant-east-asian:normal;stroke-width:1.29556">2024</tspan></text>
</svg>
