<svg width="120" height="40" viewBox="0 0 120 40" fill="none" xmlns="http://www.w3.org/2000/svg">
<path fill-rule="evenodd" clip-rule="evenodd" d="M15.3723 0H16.425H22.3671H23.3761L23.7581 0.933846L25.2385 4.55259C26.4765 5.05214 27.3602 5.543 28.4597 6.37756L32.1468 5.4157L33.1827 5.14545L33.7766 6.03627L37.2268 11.2116L37.8167 12.0964L37.1787 12.947L34.7347 16.2056C35.0299 17.5001 35.0626 18.5298 34.8961 19.8851L37.3494 22.0317L38.126 22.7112L37.7708 23.6801L35.6623 29.4305L35.3009 30.416H34.2512H29.8426V27.4102H33.2016L34.5934 23.6142L32.3032 21.6102L31.677 21.0623L31.809 20.2408C32.0845 18.526 32.0575 17.7352 31.6532 16.2816L31.455 15.5689L31.8989 14.9771L34.1361 11.9942L31.8695 8.5944L28.4968 9.47423L27.7618 9.66599L27.1715 9.18778C25.8409 8.10987 25.0968 7.7009 23.5651 7.12727L22.9499 6.89688L22.7012 6.28889L21.3581 3.00578H17.4777L16.304 6.23345L16.0573 6.91185L15.3736 7.14335C13.8004 7.67602 13.0247 8.07413 11.6086 9.19745L11.021 9.66355L10.2953 9.47423L6.92258 8.5944L4.65076 12.0021L6.70917 14.7957L7.0853 15.3061L6.98212 15.9318C6.69589 17.6673 6.6368 18.5813 6.80372 20.3369L6.8793 21.1318L6.26298 21.6393L3.82681 23.6456L5.20718 27.4102H8.56614V30.416H4.1575H3.10783L2.74647 29.4305L0.637996 23.6801L0.27124 22.6798L1.09363 22.0026L3.74625 19.8181C3.65608 18.4365 3.71748 17.4197 3.91716 16.0736L1.60583 12.9368L0.980726 12.0884L1.56526 11.2116L5.0155 6.03627L5.60938 5.14545L6.64534 5.4157L10.3416 6.37994C11.5162 5.50623 12.4443 5.01391 13.7216 4.53961L15.0126 0.989288L15.3723 0ZM16.7138 21.7815C15.2048 20.2724 15.2048 17.8258 16.7138 16.3167C18.2228 14.8077 20.6695 14.8077 22.1785 16.3167C23.6876 17.8258 23.6876 20.2724 22.1785 21.7815C20.6695 23.2905 18.2228 23.2905 16.7138 21.7815ZM14.5884 14.1913C11.9055 16.8742 11.9055 21.224 14.5884 23.9069C17.2713 26.5897 21.6211 26.5897 24.3039 23.9069C26.9868 21.224 26.9868 16.8742 24.3039 14.1913C21.6211 11.5084 17.2713 11.5084 14.5884 14.1913ZM10.483 30.416H28.5009V27.4102H10.483V30.416ZM10.483 35.208H28.5009V32.2022H10.483V35.208ZM28.5009 40H10.483V36.9942H28.5009V40ZM55.5494 16.9171C60.5591 16.9171 63.5938 13.8182 63.5938 8.68011C63.5938 3.55808 60.5591 0.47523 55.5976 0.47523H49.7209V16.9171H55.5494ZM53.1972 13.9386V3.45371H55.413C58.4958 3.45371 60.1256 5.02725 60.1256 8.68011C60.1256 12.349 58.4958 13.9386 55.4049 13.9386H53.1972ZM68.4296 16.9171H75.4543C79.1473 16.9171 81.1142 14.9903 81.1142 12.3731C81.1142 9.94055 79.3721 8.47138 77.5015 8.38307V8.2225C79.2115 7.83714 80.472 6.62488 80.472 4.69007C80.472 2.22539 78.6415 0.47523 75.0128 0.47523H68.4296V16.9171ZM71.9058 14.0751V9.70773H74.8201C76.49 9.70773 77.5256 10.6711 77.5256 12.0279C77.5256 13.2642 76.6826 14.0751 74.7398 14.0751H71.9058ZM71.9058 7.35545V3.28512H74.5471C76.0885 3.28512 76.9636 4.07992 76.9636 5.2681C76.9636 6.56868 75.9039 7.35545 74.4829 7.35545H71.9058ZM85.637 16.9171V0.47523H89.924L94.452 11.5221H94.6447L99.1726 0.47523H103.46V16.9171H100.088V6.21544H99.9513L95.6964 16.8368H93.4003L89.1453 6.17529H89.0088V16.9171H85.637ZM108.585 16.9171H119.11V14.051H112.061V0.47523H108.585V16.9171ZM49.9937 39.5248H60.3662V37.7585H52.7233V37.6301L56.4163 33.6802C59.2422 30.6535 60.0771 29.2406 60.0771 27.4181C60.0771 24.8812 58.0219 22.8581 55.1317 22.8581C52.2496 22.8581 50.0579 24.817 50.0579 27.7072H51.9526C51.9526 25.8366 53.1648 24.5922 55.0675 24.5922C56.8498 24.5922 58.2146 25.684 58.2146 27.4181C58.2146 28.9355 57.3235 30.0594 55.4208 32.1388L49.9937 38.0797V39.5248ZM74.6966 39.7495C78.3254 39.7495 80.4127 36.6747 80.4127 31.3038C80.4127 25.9731 78.2933 22.8581 74.6966 22.8581C71.0999 22.8581 68.9805 25.9731 68.9805 31.3038C68.9805 36.6747 71.0678 39.7495 74.6966 39.7495ZM74.6966 37.9833C72.3042 37.9833 70.9073 35.5829 70.9073 31.3038C70.9073 27.0328 72.3202 24.5922 74.6966 24.5922C77.073 24.5922 78.4859 27.0328 78.4859 31.3038C78.4859 35.5829 77.089 37.9833 74.6966 37.9833ZM99.4879 39.5248H89.1154V38.0797L94.5425 32.1388C96.4452 30.0594 97.3363 28.9355 97.3363 27.4181C97.3363 25.684 95.9715 24.5922 94.1892 24.5922C92.2865 24.5922 91.0742 25.8366 91.0742 27.7072H89.1796C89.1796 24.817 91.3713 22.8581 94.2534 22.8581C97.1436 22.8581 99.1989 24.8812 99.1989 27.4181C99.1989 29.2406 98.3639 30.6535 95.538 33.6802L91.845 37.6301V37.7585H99.4879V39.5248ZM108.455 39.5248H118.828V37.7585H111.185V37.6301L114.878 33.6802C117.704 30.6535 118.539 29.2406 118.539 27.4181C118.539 24.8812 116.484 22.8581 113.594 22.8581C110.711 22.8581 108.52 24.817 108.52 27.7072H110.414C110.414 25.8366 111.627 24.5922 113.529 24.5922C115.312 24.5922 116.676 25.684 116.676 27.4181C116.676 28.9355 115.785 30.0594 113.883 32.1388L108.455 38.0797V39.5248Z" fill="white"/>
</svg>
