<?xml version="1.0" encoding="UTF-8"?>
<svg id="Layer_1" data-name="Layer 1" xmlns="http://www.w3.org/2000/svg" viewBox="0 0 116.01 55.49">
  <defs>
    <style>
      .cls-1 {
        opacity: .99;
      }

      .cls-2 {
        fill: #fff;
        stroke-width: 0px;
      }
    </style>
  </defs>
  <g class="cls-1">
    <path class="cls-2" d="M95.51,0c3.82.03,7.61.25,11.38,1,4.52.9,6.85,3.72,7.61,8.08.32,1.84.47,3.69.53,5.56.02.54-.09.76-.69.75-1.63-.04-3.27-.03-4.91,0-.51,0-.62-.18-.63-.64-.03-1.75-.18-3.49-.67-5.18-.52-1.8-1.64-2.96-3.48-3.45-1.96-.52-3.94-.74-5.95-.78-3.96-.08-7.93-.15-11.83.66-3.7.77-5.11,2.33-5.55,6.1-.28,2.4-.19,4.81.31,7.19.45,2.1,1.53,3.45,3.79,3.88,3.25.63,6.53.91,9.83,1.1,4.33.24,8.66.43,12.9,1.46,4.84,1.18,6.67,3.18,7.44,8.13.64,4.17.57,8.34-.18,12.5-.82,4.53-3.41,7.19-7.96,8.08-5.82,1.14-11.69,1.18-17.57.92-2.47-.11-4.89-.48-7.3-1.08-4.23-1.04-6.37-3.89-7.17-7.98-.5-2.52-.5-5.07-.54-7.63,0-.49.15-.64.64-.64,1.61.02,3.21.04,4.82,0,.62-.02.76.21.76.79-.02,2.09.08,4.17.49,6.25.53,2.7,2.11,4.11,4.77,4.55,3.7.62,7.42.64,11.15.55,2.47-.06,4.92-.27,7.36-.68,2.81-.47,4.23-2.12,4.71-4.82.55-3.13.7-6.26.15-9.41-.37-2.11-1.57-3.43-3.64-4.01-1.64-.46-3.32-.65-5.01-.74-3.84-.2-7.68-.39-11.52-.59-2.16-.12-4.28-.45-6.32-1.21-4.14-1.53-6.67-4.49-7.56-8.77-.79-3.85-.57-7.7.36-11.51.97-3.97,3.54-6.27,7.46-7.24,3.96-.98,7.99-1.17,12.04-1.19Z"/>
    <path class="cls-2" d="M60.32,27.65c0-8.72,0-17.44-.02-26.16,0-.72.12-1.01.93-.97,1.52.08,3.04.06,4.56,0,.71-.03.84.22.84.87-.02,9.69-.01,19.39-.01,29.08,0,7.86,0,15.72.02,23.58,0,.7-.14.94-.88.91-1.52-.06-3.04-.06-4.56,0-.72.03-.9-.19-.89-.9.03-8.8.02-17.61.02-26.41Z"/>
    <path class="cls-2" d="M40.34,5.93C36.12,2.3,31.13.56,25.57.54c-8.15-.03-16.3,0-24.45-.03C.25.51,0,.7,0,1.61c.03,17.76.02,35.52.01,53.28.2.25.48.12.72.13,2.03.05,4.07.02,6.1.07,4.3.11,8.6-.03,12.9-.06.56,0,.79-.22.81-.74.03-.72-.07-1.45.03-2.15.27-1.83-.49-3.04-1.93-4.14-2.26-1.73-1.84-1.09-1.86-3.75,0-.68-.18-1.23-.74-1.65-.33-.25-.53-.59-.6-1.01-.14-.85.24-1.59,1.04-1.98.74-.35,1.58-.16,2.09.48.52.66.54,1.54.03,2.24-.23.32-.58.55-.7.96-.49,1.72,0,3.04,1.51,3.97.83.51,1.1.37,1.15-.62,0-.11,0-.23,0-.34,0-3.79,0-7.57,0-11.36,0-.73-.18-1.31-.73-1.83-.82-.77-.8-1.78-.07-2.52.74-.75,1.87-.8,2.64-.12.74.66.8,1.72.07,2.53-.52.58-.71,1.2-.7,1.96.02,2.07,0,4.13,0,6.2,0,.26,0,.52.04.77.09.49.36.64.8.39.52-.3.99-.69,1.46-1.07,1.6-1.28,1.61-1.43.36-3.05-.46-.6-.56-1.26-.2-1.94.35-.64.88-1.05,1.65-1.05.78,0,1.3.39,1.64,1.06.4.81.18,1.59-.64,2.27-.36.29-.79.55-.77,1.07.04.82-.4,1.32-.98,1.8-.4.33-.78.67-1.17,1.01q-2.19,1.9-2.19,4.8c0,2.04,0,4.07,0,6.11,0,.26.01.52,0,.77-.02.69.27.95.99.92,1.43-.06,2.87.05,4.3-.03,1.55-.09,3.1-.26,4.58-.81,3-.95,5.82-2.28,8.26-4.29,6.21-5.11,9.68-11.65,10.28-19.7.72-9.73-2.44-17.89-9.86-24.28ZM11.02,20.92c1.01-.01,1.88.84,1.89,1.84,0,1-.86,1.86-1.87,1.86-1.01,0-1.89-.85-1.9-1.84,0-.98.86-1.85,1.87-1.86ZM9.42,26.2c.66.05,1.05.42,1.09,1.09.04.64-.48,1.16-1.1,1.17-.63,0-1.15-.51-1.14-1.14,0-.63.53-1.16,1.16-1.12ZM10.2,35.24c-.01.55-.29.85-.79.86-.49,0-.82-.27-.82-.8,0-.51.28-.82.79-.83.51-.01.78.29.83.77ZM5.48,33.14c-1.1-.04-1.96-.92-1.95-1.99.02-1.11.95-2.01,2.06-1.99,1.1.02,2.01.95,1.99,2.06-.02,1.11-.95,1.96-2.1,1.92ZM9.07,42.42c-1.12-.03-2.01-.95-2-2.05.02-1.12.99-2.08,2.1-2.06,1.12.02,2.04.98,2.02,2.12-.02,1.15-.95,2.02-2.13,1.98ZM13.75,33.13c-.77,0-1.39-.59-1.41-1.33-.02-.79.6-1.44,1.38-1.46.79-.02,1.43.6,1.45,1.39.02.79-.61,1.4-1.42,1.4ZM15.73,36.58c-.51.01-.83-.28-.84-.76-.02-.52.28-.86.84-.86.51,0,.74.33.82.81-.06.49-.3.8-.81.81ZM16.27,27.7c-.67-.06-1.03-.47-1.07-1.12-.04-.61.53-1.14,1.15-1.13.64,0,1.12.52,1.1,1.17-.02.64-.55,1.15-1.18,1.09ZM17.24,21.76c-.54.03-.88-.27-.89-.82,0-.51.3-.77.77-.82.54.01.85.29.87.78.02.48-.24.84-.76.86ZM21.08,20.94c-1.22-.03-2.21-1.05-2.2-2.27.01-1.24,1.01-2.2,2.26-2.19,1.24.01,2.23,1.02,2.21,2.25-.02,1.23-1.06,2.24-2.26,2.21ZM25.19,29.9c-.54.01-.87-.33-.86-.85.01-.48.33-.79.84-.79.51,0,.74.35.84.78-.07.52-.31.86-.82.87ZM24.83,26.18c-.79,0-1.41-.63-1.41-1.42,0-.79.63-1.42,1.41-1.43.79,0,1.41.62,1.41,1.42,0,.8-.62,1.43-1.41,1.43ZM26.84,22.59c-.51,0-.81-.28-.84-.79-.02-.52.3-.76.71-.84.59.01.9.29.91.79,0,.49-.26.82-.78.83ZM27.71,45.72c-.86,0-1.53-.63-1.56-1.48-.03-.88.64-1.62,1.5-1.65.84-.03,1.6.69,1.62,1.55.02.87-.68,1.58-1.56,1.59ZM29.24,40.47c-.63-.04-1.12-.59-1.05-1.22.07-.67.47-1.03,1.14-1.04.63,0,1.14.54,1.11,1.17-.02.62-.59,1.13-1.2,1.09ZM29.29,32.73c-.81-.01-1.42-.62-1.4-1.41.01-.79.64-1.4,1.43-1.4.79,0,1.4.62,1.4,1.42,0,.8-.61,1.4-1.42,1.39ZM31.24,23.98c-1.01.04-1.92-.79-1.94-1.77-.02-.99.82-1.86,1.83-1.88,1-.02,1.88.82,1.9,1.82.02.94-.82,1.8-1.79,1.84ZM33.79,32.09c.66,0,1.08.38,1.14,1.05.05.6-.52,1.16-1.14,1.16-.64,0-1.15-.52-1.12-1.16.03-.7.48-1.04,1.12-1.05ZM34.05,39.99c-1.25-.02-2.22-1.01-2.2-2.26.02-1.23,1.05-2.23,2.27-2.21,1.22.03,2.23,1.06,2.21,2.28-.02,1.23-1.03,2.2-2.28,2.19ZM35.85,30.33c-1.14-.02-2.08-.96-2.07-2.08,0-1.12.96-2.05,2.1-2.05,1.14,0,2.05.93,2.05,2.08,0,1.15-.93,2.07-2.07,2.05Z"/>
  </g>
</svg>